<mxfile host="app.diagrams.net" modified="2023-03-28T16:19:21.767Z" agent="Mozilla/5.0 (Windows NT 10.0; Win64; x64) AppleWebKit/537.36 (KHTML, like Gecko) Chrome/111.0.0.0 Safari/537.36" etag="oZMdUOp1N4CO8OzuQeF-" version="21.1.1" type="device">
  <diagram name="Page-1" id="EtqLeZ_27CFZiV2tn9_F">
    <mxGraphModel dx="2953" dy="1842" grid="1" gridSize="10" guides="1" tooltips="1" connect="1" arrows="1" fold="1" page="1" pageScale="1" pageWidth="827" pageHeight="1169" math="0" shadow="1">
      <root>
        <mxCell id="0" />
        <mxCell id="1" parent="0" />
        <mxCell id="XH3ymB31vykvf-I55AMi-23" value="" style="whiteSpace=wrap;html=1;fillColor=none;" vertex="1" parent="1">
          <mxGeometry x="290" y="-1050" width="1700" height="1630" as="geometry" />
        </mxCell>
        <mxCell id="kll8w6i1lzObCTbQpMs8-9" value="" style="group" parent="1" vertex="1" connectable="0">
          <mxGeometry x="420" y="-370" width="190" height="360" as="geometry" />
        </mxCell>
        <mxCell id="kll8w6i1lzObCTbQpMs8-1" value="" style="whiteSpace=wrap;html=1;" parent="kll8w6i1lzObCTbQpMs8-9" vertex="1">
          <mxGeometry width="190" height="360" as="geometry" />
        </mxCell>
        <mxCell id="kll8w6i1lzObCTbQpMs8-4" value="" style="sketch=0;pointerEvents=1;shadow=0;dashed=0;html=1;strokeColor=none;fillColor=#434445;aspect=fixed;labelPosition=center;verticalLabelPosition=bottom;verticalAlign=top;align=center;outlineConnect=0;shape=mxgraph.vvd.monitor;" parent="kll8w6i1lzObCTbQpMs8-9" vertex="1">
          <mxGeometry x="60" y="17" width="70" height="65.1" as="geometry" />
        </mxCell>
        <mxCell id="kll8w6i1lzObCTbQpMs8-5" value="" style="shape=image;html=1;verticalAlign=top;verticalLabelPosition=bottom;labelBackgroundColor=#ffffff;imageAspect=0;aspect=fixed;image=https://cdn0.iconfinder.com/data/icons/devices-42/512/android_phone-128.png" parent="kll8w6i1lzObCTbQpMs8-9" vertex="1">
          <mxGeometry x="60" y="110" width="70" height="70" as="geometry" />
        </mxCell>
        <mxCell id="kll8w6i1lzObCTbQpMs8-7" value="" style="sketch=0;pointerEvents=1;shadow=0;dashed=0;html=1;strokeColor=none;fillColor=#505050;labelPosition=center;verticalLabelPosition=bottom;verticalAlign=top;outlineConnect=0;align=center;shape=mxgraph.office.devices.laptop;" parent="kll8w6i1lzObCTbQpMs8-9" vertex="1">
          <mxGeometry x="47.5" y="200" width="95" height="60" as="geometry" />
        </mxCell>
        <mxCell id="kll8w6i1lzObCTbQpMs8-8" value="" style="sketch=0;pointerEvents=1;shadow=0;dashed=0;html=1;strokeColor=none;fillColor=#505050;labelPosition=center;verticalLabelPosition=bottom;verticalAlign=top;outlineConnect=0;align=center;shape=mxgraph.office.devices.tablet_ipad;direction=south;" parent="kll8w6i1lzObCTbQpMs8-9" vertex="1">
          <mxGeometry x="61.66" y="290" width="66.67" height="50" as="geometry" />
        </mxCell>
        <mxCell id="kll8w6i1lzObCTbQpMs8-10" value="&lt;font size=&quot;3&quot;&gt;Client&lt;/font&gt;" style="whiteSpace=wrap;html=1;" parent="1" vertex="1">
          <mxGeometry x="465" width="100" height="40" as="geometry" />
        </mxCell>
        <mxCell id="kll8w6i1lzObCTbQpMs8-23" style="edgeStyle=orthogonalEdgeStyle;rounded=0;orthogonalLoop=1;jettySize=auto;html=1;exitX=1;exitY=0.5;exitDx=0;exitDy=0;entryX=0;entryY=0.5;entryDx=0;entryDy=0;" parent="1" source="kll8w6i1lzObCTbQpMs8-1" target="ika4yATIqestbi-0xnFT-3" edge="1">
          <mxGeometry relative="1" as="geometry">
            <Array as="points">
              <mxPoint x="610" y="-175" />
            </Array>
            <mxPoint x="843" y="-175" as="targetPoint" />
          </mxGeometry>
        </mxCell>
        <mxCell id="I240FFUc2NYjbOVeZY0n-17" style="edgeStyle=orthogonalEdgeStyle;rounded=0;orthogonalLoop=1;jettySize=auto;html=1;exitX=0.5;exitY=1;exitDx=0;exitDy=0;entryX=0.468;entryY=0.001;entryDx=0;entryDy=0;entryPerimeter=0;" parent="1" target="ika4yATIqestbi-0xnFT-6" edge="1">
          <mxGeometry relative="1" as="geometry">
            <mxPoint x="1661" y="40" as="targetPoint" />
            <mxPoint x="1665" y="-110" as="sourcePoint" />
            <Array as="points">
              <mxPoint x="1650" y="-110" />
              <mxPoint x="1650" y="90" />
              <mxPoint x="1650" y="90" />
            </Array>
          </mxGeometry>
        </mxCell>
        <mxCell id="kll8w6i1lzObCTbQpMs8-130" value="" style="group" parent="1" vertex="1" connectable="0">
          <mxGeometry x="1580" y="-270" width="131" height="220" as="geometry" />
        </mxCell>
        <mxCell id="kll8w6i1lzObCTbQpMs8-129" value="" style="shape=datastore;whiteSpace=wrap;html=1;" parent="kll8w6i1lzObCTbQpMs8-130" vertex="1">
          <mxGeometry width="131" height="160" as="geometry" />
        </mxCell>
        <mxCell id="kll8w6i1lzObCTbQpMs8-125" value="" style="dashed=0;outlineConnect=0;html=1;align=center;labelPosition=center;verticalLabelPosition=bottom;verticalAlign=top;shape=mxgraph.weblogos.mongodb" parent="kll8w6i1lzObCTbQpMs8-130" vertex="1">
          <mxGeometry x="43.99000000000001" y="60" width="43.02" height="90" as="geometry" />
        </mxCell>
        <mxCell id="kll8w6i1lzObCTbQpMs8-127" value="&lt;font style=&quot;font-size: 18px;&quot;&gt;MONGO DB&lt;/font&gt;" style="whiteSpace=wrap;html=1;" parent="kll8w6i1lzObCTbQpMs8-130" vertex="1">
          <mxGeometry x="5.5" y="180" width="120" height="40" as="geometry" />
        </mxCell>
        <mxCell id="kll8w6i1lzObCTbQpMs8-131" value="&lt;pre style=&quot;box-sizing: inherit; margin-top: 1.5em; margin-bottom: 3em; padding: 20px; border: 0px; font-variant-numeric: inherit; font-variant-east-asian: inherit; font-variant-alternates: inherit; font-stretch: inherit; line-height: 1.5em; font-family: Consolas, Monaco, &amp;quot;Andale Mono&amp;quot;, &amp;quot;Ubuntu Mono&amp;quot;, monospace; font-optical-sizing: inherit; font-kerning: inherit; font-feature-settings: inherit; font-variation-settings: inherit; vertical-align: baseline; color: var(--gray85); background: var(--gray05); text-shadow: rgb(255, 255, 255) 0px 1px; text-align: left; word-break: normal; overflow-wrap: normal; tab-size: 4; hyphens: none; overflow: auto; min-width: 100%; max-width: 100%;&quot; class=&quot;language-json&quot;&gt;&lt;code style=&quot;box-sizing: inherit; margin: 0px; padding: 0px; border: 0px; font-style: inherit; font-variant: inherit; font-stretch: inherit; line-height: inherit; font-family: Consolas, Monaco, &amp;quot;Andale Mono&amp;quot;, &amp;quot;Ubuntu Mono&amp;quot;, monospace; font-optical-sizing: inherit; font-kerning: inherit; font-feature-settings: inherit; font-variation-settings: inherit; vertical-align: baseline; background: 0px 0px; text-shadow: rgb(255, 255, 255) 0px 1px; word-spacing: normal; word-break: normal; overflow-wrap: normal; tab-size: 4; hyphens: none;&quot; class=&quot;language-json&quot;&gt;&lt;font style=&quot;font-size: 14px;&quot;&gt;{&lt;br&gt;   &quot;name&quot;: &quot;chikkuuu&quot;,&lt;br&gt;   &quot;password&quot;: &quot;l;fafejwj32j23j4a&quot;,&lt;br&gt;   &quot;email&quot;: &quot;chikkuuu@gmail.com&quot;,&lt;br&gt;   &quot;gender&quot;: Male,&lt;br&gt;}    &lt;/font&gt;&lt;/code&gt;&lt;/pre&gt;" style="whiteSpace=wrap;html=1;" parent="1" vertex="1">
          <mxGeometry x="1495.5" y="-744" width="300" height="160" as="geometry" />
        </mxCell>
        <mxCell id="I240FFUc2NYjbOVeZY0n-6" style="edgeStyle=orthogonalEdgeStyle;rounded=0;orthogonalLoop=1;jettySize=auto;html=1;exitX=0.999;exitY=0.451;exitDx=0;exitDy=0;exitPerimeter=0;entryX=0.009;entryY=0.563;entryDx=0;entryDy=0;entryPerimeter=0;" parent="1" source="ika4yATIqestbi-0xnFT-3" target="kll8w6i1lzObCTbQpMs8-129" edge="1">
          <mxGeometry relative="1" as="geometry">
            <mxPoint x="1579" y="-180" as="targetPoint" />
            <Array as="points">
              <mxPoint x="978" y="-180" />
            </Array>
            <mxPoint x="1281" y="-217.9000000000001" as="sourcePoint" />
          </mxGeometry>
        </mxCell>
        <mxCell id="I240FFUc2NYjbOVeZY0n-16" style="edgeStyle=orthogonalEdgeStyle;rounded=0;orthogonalLoop=1;jettySize=auto;html=1;entryX=0.5;entryY=0;entryDx=0;entryDy=0;" parent="1" source="I240FFUc2NYjbOVeZY0n-9" target="I240FFUc2NYjbOVeZY0n-11" edge="1">
          <mxGeometry relative="1" as="geometry" />
        </mxCell>
        <mxCell id="XH3ymB31vykvf-I55AMi-19" style="edgeStyle=orthogonalEdgeStyle;rounded=0;orthogonalLoop=1;jettySize=auto;html=1;entryX=0.5;entryY=0;entryDx=0;entryDy=0;" edge="1" parent="1" source="I240FFUc2NYjbOVeZY0n-9" target="ika4yATIqestbi-0xnFT-3">
          <mxGeometry relative="1" as="geometry" />
        </mxCell>
        <mxCell id="I240FFUc2NYjbOVeZY0n-9" value="" style="sketch=0;aspect=fixed;html=1;points=[];align=center;image;fontSize=12;image=img/lib/mscae/Cache_Redis_Product.svg;" parent="1" vertex="1">
          <mxGeometry x="1166.43" y="-535" width="107.15" height="90" as="geometry" />
        </mxCell>
        <mxCell id="I240FFUc2NYjbOVeZY0n-11" value="&lt;font style=&quot;font-size: 14px;&quot;&gt;check if data&lt;br&gt;exits in cache&lt;/font&gt;" style="whiteSpace=wrap;html=1;" parent="1" vertex="1">
          <mxGeometry x="1160" y="-350" width="120" height="60" as="geometry" />
        </mxCell>
        <mxCell id="I240FFUc2NYjbOVeZY0n-12" style="edgeStyle=orthogonalEdgeStyle;rounded=0;orthogonalLoop=1;jettySize=auto;html=1;entryX=0.5;entryY=1;entryDx=0;entryDy=0;exitX=0.999;exitY=0.472;exitDx=0;exitDy=0;exitPerimeter=0;" parent="1" source="ika4yATIqestbi-0xnFT-3" target="I240FFUc2NYjbOVeZY0n-11" edge="1">
          <mxGeometry relative="1" as="geometry">
            <mxPoint x="990" y="-180" as="sourcePoint" />
          </mxGeometry>
        </mxCell>
        <mxCell id="I240FFUc2NYjbOVeZY0n-15" value="&lt;font style=&quot;font-size: 14px;&quot;&gt;if cache needs to&lt;br&gt;be validate to save&amp;nbsp;&lt;br&gt;in db&lt;/font&gt;" style="whiteSpace=wrap;html=1;" parent="1" vertex="1">
          <mxGeometry x="1345" y="-350" width="150" height="80" as="geometry" />
        </mxCell>
        <mxCell id="ika4yATIqestbi-0xnFT-4" value="" style="group" parent="1" vertex="1" connectable="0">
          <mxGeometry x="838" y="-260" width="140" height="170" as="geometry" />
        </mxCell>
        <mxCell id="ika4yATIqestbi-0xnFT-3" value="" style="whiteSpace=wrap;html=1;" parent="ika4yATIqestbi-0xnFT-4" vertex="1">
          <mxGeometry width="140" height="170" as="geometry" />
        </mxCell>
        <mxCell id="ika4yATIqestbi-0xnFT-2" value="" style="image;aspect=fixed;perimeter=ellipsePerimeter;html=1;align=center;shadow=0;dashed=0;spacingTop=3;image=img/lib/active_directory/web_server.svg;" parent="ika4yATIqestbi-0xnFT-4" vertex="1">
          <mxGeometry x="20" y="22.5" width="100" height="125" as="geometry" />
        </mxCell>
        <mxCell id="ika4yATIqestbi-0xnFT-8" value="" style="group" parent="1" vertex="1" connectable="0">
          <mxGeometry x="1580" y="100" width="150" height="170" as="geometry" />
        </mxCell>
        <mxCell id="ika4yATIqestbi-0xnFT-6" value="" style="whiteSpace=wrap;html=1;" parent="ika4yATIqestbi-0xnFT-8" vertex="1">
          <mxGeometry width="150" height="170" as="geometry" />
        </mxCell>
        <mxCell id="ika4yATIqestbi-0xnFT-7" value="" style="aspect=fixed;html=1;points=[];align=center;image;fontSize=12;image=img/lib/azure2/databases/SQL_Database.svg;" parent="ika4yATIqestbi-0xnFT-8" vertex="1">
          <mxGeometry x="33.75" y="30" width="82.5" height="110" as="geometry" />
        </mxCell>
        <mxCell id="ika4yATIqestbi-0xnFT-43" style="edgeStyle=orthogonalEdgeStyle;rounded=0;orthogonalLoop=1;jettySize=auto;html=1;entryX=0.519;entryY=0.003;entryDx=0;entryDy=0;entryPerimeter=0;" parent="1" source="ika4yATIqestbi-0xnFT-6" target="ika4yATIqestbi-0xnFT-49" edge="1">
          <mxGeometry relative="1" as="geometry">
            <mxPoint x="1860" y="215" as="targetPoint" />
          </mxGeometry>
        </mxCell>
        <mxCell id="ika4yATIqestbi-0xnFT-49" value="appointments " style="shape=table;startSize=20;container=1;collapsible=0;childLayout=tableLayout;strokeColor=default;fontSize=16;" parent="1" vertex="1">
          <mxGeometry x="1410.5" y="400" width="470" height="60" as="geometry" />
        </mxCell>
        <mxCell id="ika4yATIqestbi-0xnFT-50" value="" style="shape=tableRow;horizontal=0;startSize=0;swimlaneHead=0;swimlaneBody=0;strokeColor=inherit;top=0;left=0;bottom=0;right=0;collapsible=0;dropTarget=0;fillColor=none;points=[[0,0.5],[1,0.5]];portConstraint=eastwest;fontSize=16;" parent="ika4yATIqestbi-0xnFT-49" vertex="1">
          <mxGeometry y="20" width="470" height="20" as="geometry" />
        </mxCell>
        <mxCell id="ika4yATIqestbi-0xnFT-51" value="id" style="shape=partialRectangle;html=1;whiteSpace=wrap;connectable=0;strokeColor=inherit;overflow=hidden;fillColor=none;top=0;left=0;bottom=0;right=0;pointerEvents=1;fontSize=16;" parent="ika4yATIqestbi-0xnFT-50" vertex="1">
          <mxGeometry width="68" height="20" as="geometry">
            <mxRectangle width="68" height="20" as="alternateBounds" />
          </mxGeometry>
        </mxCell>
        <mxCell id="ika4yATIqestbi-0xnFT-52" value="user_id" style="shape=partialRectangle;html=1;whiteSpace=wrap;connectable=0;strokeColor=inherit;overflow=hidden;fillColor=none;top=0;left=0;bottom=0;right=0;pointerEvents=1;fontSize=16;" parent="ika4yATIqestbi-0xnFT-50" vertex="1">
          <mxGeometry x="68" width="68" height="20" as="geometry">
            <mxRectangle width="68" height="20" as="alternateBounds" />
          </mxGeometry>
        </mxCell>
        <mxCell id="ika4yATIqestbi-0xnFT-53" value="appiontmentname" style="shape=partialRectangle;html=1;whiteSpace=wrap;connectable=0;strokeColor=inherit;overflow=hidden;fillColor=none;top=0;left=0;bottom=0;right=0;pointerEvents=1;fontSize=16;" parent="ika4yATIqestbi-0xnFT-50" vertex="1">
          <mxGeometry x="136" width="144" height="20" as="geometry">
            <mxRectangle width="144" height="20" as="alternateBounds" />
          </mxGeometry>
        </mxCell>
        <mxCell id="ika4yATIqestbi-0xnFT-54" value="time" style="shape=partialRectangle;html=1;whiteSpace=wrap;connectable=0;strokeColor=inherit;overflow=hidden;fillColor=none;top=0;left=0;bottom=0;right=0;pointerEvents=1;fontSize=16;" parent="ika4yATIqestbi-0xnFT-50" vertex="1">
          <mxGeometry x="280" width="90" height="20" as="geometry">
            <mxRectangle width="90" height="20" as="alternateBounds" />
          </mxGeometry>
        </mxCell>
        <mxCell id="ika4yATIqestbi-0xnFT-55" value="x" style="shape=partialRectangle;html=1;whiteSpace=wrap;connectable=0;strokeColor=inherit;overflow=hidden;fillColor=none;top=0;left=0;bottom=0;right=0;pointerEvents=1;fontSize=16;" parent="ika4yATIqestbi-0xnFT-50" vertex="1">
          <mxGeometry x="370" width="100" height="20" as="geometry">
            <mxRectangle width="100" height="20" as="alternateBounds" />
          </mxGeometry>
        </mxCell>
        <mxCell id="ika4yATIqestbi-0xnFT-56" value="" style="shape=tableRow;horizontal=0;startSize=0;swimlaneHead=0;swimlaneBody=0;strokeColor=inherit;top=0;left=0;bottom=0;right=0;collapsible=0;dropTarget=0;fillColor=none;points=[[0,0.5],[1,0.5]];portConstraint=eastwest;fontSize=16;" parent="ika4yATIqestbi-0xnFT-49" vertex="1">
          <mxGeometry y="40" width="470" height="20" as="geometry" />
        </mxCell>
        <mxCell id="ika4yATIqestbi-0xnFT-57" value="1" style="shape=partialRectangle;html=1;whiteSpace=wrap;connectable=0;strokeColor=inherit;overflow=hidden;fillColor=none;top=0;left=0;bottom=0;right=0;pointerEvents=1;fontSize=16;" parent="ika4yATIqestbi-0xnFT-56" vertex="1">
          <mxGeometry width="68" height="20" as="geometry">
            <mxRectangle width="68" height="20" as="alternateBounds" />
          </mxGeometry>
        </mxCell>
        <mxCell id="ika4yATIqestbi-0xnFT-58" value="1" style="shape=partialRectangle;html=1;whiteSpace=wrap;connectable=0;strokeColor=inherit;overflow=hidden;fillColor=none;top=0;left=0;bottom=0;right=0;pointerEvents=1;fontSize=16;" parent="ika4yATIqestbi-0xnFT-56" vertex="1">
          <mxGeometry x="68" width="68" height="20" as="geometry">
            <mxRectangle width="68" height="20" as="alternateBounds" />
          </mxGeometry>
        </mxCell>
        <mxCell id="ika4yATIqestbi-0xnFT-59" value="1" style="shape=partialRectangle;html=1;whiteSpace=wrap;connectable=0;strokeColor=inherit;overflow=hidden;fillColor=none;top=0;left=0;bottom=0;right=0;pointerEvents=1;fontSize=16;" parent="ika4yATIqestbi-0xnFT-56" vertex="1">
          <mxGeometry x="136" width="144" height="20" as="geometry">
            <mxRectangle width="144" height="20" as="alternateBounds" />
          </mxGeometry>
        </mxCell>
        <mxCell id="ika4yATIqestbi-0xnFT-60" value="12/1/2023" style="shape=partialRectangle;html=1;whiteSpace=wrap;connectable=0;strokeColor=inherit;overflow=hidden;fillColor=none;top=0;left=0;bottom=0;right=0;pointerEvents=1;fontSize=16;" parent="ika4yATIqestbi-0xnFT-56" vertex="1">
          <mxGeometry x="280" width="90" height="20" as="geometry">
            <mxRectangle width="90" height="20" as="alternateBounds" />
          </mxGeometry>
        </mxCell>
        <mxCell id="ika4yATIqestbi-0xnFT-61" value="&lt;font style=&quot;font-size: 12px;&quot;&gt;#S3K3434&lt;/font&gt;" style="shape=partialRectangle;html=1;whiteSpace=wrap;connectable=0;strokeColor=inherit;overflow=hidden;fillColor=none;top=0;left=0;bottom=0;right=0;pointerEvents=1;fontSize=16;" parent="ika4yATIqestbi-0xnFT-56" vertex="1">
          <mxGeometry x="370" width="100" height="20" as="geometry">
            <mxRectangle width="100" height="20" as="alternateBounds" />
          </mxGeometry>
        </mxCell>
        <mxCell id="XH3ymB31vykvf-I55AMi-17" value="" style="group" vertex="1" connectable="0" parent="1">
          <mxGeometry x="450" y="-910" width="610" height="380" as="geometry" />
        </mxCell>
        <mxCell id="XH3ymB31vykvf-I55AMi-1" value="" style="group" vertex="1" connectable="0" parent="XH3ymB31vykvf-I55AMi-17">
          <mxGeometry y="287.8787878787879" width="306.438679245283" height="92.12121212121212" as="geometry" />
        </mxCell>
        <mxCell id="XH3ymB31vykvf-I55AMi-2" value="" style="whiteSpace=wrap;html=1;" vertex="1" parent="XH3ymB31vykvf-I55AMi-1">
          <mxGeometry width="306.438679245283" height="92.12121212121212" as="geometry" />
        </mxCell>
        <mxCell id="XH3ymB31vykvf-I55AMi-3" value="" style="shape=image;html=1;verticalAlign=top;verticalLabelPosition=bottom;labelBackgroundColor=#ffffff;imageAspect=0;aspect=fixed;image=https://cdn2.iconfinder.com/data/icons/user-interface-169/32/bell-128.png" vertex="1" parent="XH3ymB31vykvf-I55AMi-1">
          <mxGeometry x="21.004716981132074" y="25.333333333333336" width="41.43396226415094" height="41.43396226415094" as="geometry" />
        </mxCell>
        <mxCell id="XH3ymB31vykvf-I55AMi-4" value="Notification Engine&lt;br&gt;&lt;br&gt;Update , account related, passowrd&lt;br&gt;Marketing recommandation" style="text;html=1;align=center;verticalAlign=middle;resizable=0;points=[];autosize=1;strokeColor=none;fillColor=none;" vertex="1" parent="XH3ymB31vykvf-I55AMi-1">
          <mxGeometry x="64.74056603773585" y="5.757575757575758" width="210" height="70" as="geometry" />
        </mxCell>
        <mxCell id="XH3ymB31vykvf-I55AMi-21" style="edgeStyle=orthogonalEdgeStyle;rounded=0;orthogonalLoop=1;jettySize=auto;html=1;" edge="1" parent="XH3ymB31vykvf-I55AMi-17" source="XH3ymB31vykvf-I55AMi-6" target="XH3ymB31vykvf-I55AMi-9">
          <mxGeometry relative="1" as="geometry" />
        </mxCell>
        <mxCell id="XH3ymB31vykvf-I55AMi-6" value="email service queue" style="whiteSpace=wrap;html=1;" vertex="1" parent="XH3ymB31vykvf-I55AMi-17">
          <mxGeometry x="84.16716981132076" y="103.63636363636364" width="138.1132075471698" height="69.0909090909091" as="geometry" />
        </mxCell>
        <mxCell id="XH3ymB31vykvf-I55AMi-7" value="" style="edgeStyle=orthogonalEdgeStyle;rounded=0;orthogonalLoop=1;jettySize=auto;html=1;exitX=0.5;exitY=0;exitDx=0;exitDy=0;" edge="1" parent="XH3ymB31vykvf-I55AMi-17" source="XH3ymB31vykvf-I55AMi-2" target="XH3ymB31vykvf-I55AMi-6">
          <mxGeometry relative="1" as="geometry">
            <mxPoint x="230.18867924528303" y="276.3636363636364" as="sourcePoint" />
            <Array as="points">
              <mxPoint x="153" y="280" />
              <mxPoint x="153" y="233" />
            </Array>
          </mxGeometry>
        </mxCell>
        <mxCell id="XH3ymB31vykvf-I55AMi-8" value="" style="group" vertex="1" connectable="0" parent="XH3ymB31vykvf-I55AMi-17">
          <mxGeometry x="249.9969811320755" y="-10" width="138.1132075471698" height="69.0909090909091" as="geometry" />
        </mxCell>
        <mxCell id="XH3ymB31vykvf-I55AMi-9" value="" style="whiteSpace=wrap;html=1;" vertex="1" parent="XH3ymB31vykvf-I55AMi-8">
          <mxGeometry width="138.1132075471698" height="69.0909090909091" as="geometry" />
        </mxCell>
        <mxCell id="XH3ymB31vykvf-I55AMi-10" value="" style="html=1;verticalLabelPosition=bottom;align=center;labelBackgroundColor=#ffffff;verticalAlign=top;strokeWidth=2;strokeColor=#0080F0;shadow=0;dashed=0;shape=mxgraph.ios7.icons.stopwatch;" vertex="1" parent="XH3ymB31vykvf-I55AMi-8">
          <mxGeometry x="8.04509433962264" y="13.58787878787879" width="37.99264150943395" height="43.98787878787879" as="geometry" />
        </mxCell>
        <mxCell id="XH3ymB31vykvf-I55AMi-11" value="9 : 00 AM&amp;nbsp;&lt;br&gt;4:00 PM&amp;nbsp;&lt;br&gt;11:00 PM&lt;br&gt;" style="text;html=1;align=center;verticalAlign=middle;resizable=0;points=[];autosize=1;strokeColor=none;fillColor=none;" vertex="1" parent="XH3ymB31vykvf-I55AMi-8">
          <mxGeometry x="46.037735849056595" width="80" height="60" as="geometry" />
        </mxCell>
        <mxCell id="XH3ymB31vykvf-I55AMi-12" value="recommendation&amp;nbsp;&lt;br&gt;engine" style="ellipse;whiteSpace=wrap;html=1;" vertex="1" parent="XH3ymB31vykvf-I55AMi-17">
          <mxGeometry x="414.34566037735846" y="80.61060606060606" width="115.09433962264151" height="115.15151515151516" as="geometry" />
        </mxCell>
        <mxCell id="XH3ymB31vykvf-I55AMi-5" style="edgeStyle=orthogonalEdgeStyle;rounded=0;orthogonalLoop=1;jettySize=auto;html=1;entryX=0;entryY=0.5;entryDx=0;entryDy=0;" edge="1" parent="XH3ymB31vykvf-I55AMi-17" source="XH3ymB31vykvf-I55AMi-6" target="XH3ymB31vykvf-I55AMi-12">
          <mxGeometry relative="1" as="geometry" />
        </mxCell>
        <mxCell id="XH3ymB31vykvf-I55AMi-13" style="edgeStyle=orthogonalEdgeStyle;rounded=0;orthogonalLoop=1;jettySize=auto;html=1;entryX=0.5;entryY=1;entryDx=0;entryDy=0;" edge="1" parent="XH3ymB31vykvf-I55AMi-17" source="XH3ymB31vykvf-I55AMi-15" target="XH3ymB31vykvf-I55AMi-12">
          <mxGeometry relative="1" as="geometry" />
        </mxCell>
        <mxCell id="XH3ymB31vykvf-I55AMi-14" style="edgeStyle=orthogonalEdgeStyle;rounded=0;orthogonalLoop=1;jettySize=auto;html=1;exitX=0;exitY=0.5;exitDx=0;exitDy=0;entryX=0.998;entryY=0.353;entryDx=0;entryDy=0;entryPerimeter=0;" edge="1" parent="XH3ymB31vykvf-I55AMi-17" source="XH3ymB31vykvf-I55AMi-15" target="XH3ymB31vykvf-I55AMi-2">
          <mxGeometry relative="1" as="geometry">
            <mxPoint x="310" y="320" as="targetPoint" />
            <Array as="points">
              <mxPoint x="483" y="320" />
              <mxPoint x="450" y="320" />
            </Array>
          </mxGeometry>
        </mxCell>
        <mxCell id="XH3ymB31vykvf-I55AMi-15" value="Socket/ app/ browser" style="whiteSpace=wrap;html=1;" vertex="1" parent="XH3ymB31vykvf-I55AMi-17">
          <mxGeometry x="402.83245283018863" y="287.8781818181818" width="138.1132075471698" height="57.57575757575758" as="geometry" />
        </mxCell>
        <mxCell id="XH3ymB31vykvf-I55AMi-18" style="edgeStyle=orthogonalEdgeStyle;rounded=0;orthogonalLoop=1;jettySize=auto;html=1;" edge="1" parent="1" source="ika4yATIqestbi-0xnFT-3" target="XH3ymB31vykvf-I55AMi-2">
          <mxGeometry relative="1" as="geometry">
            <Array as="points">
              <mxPoint x="908" y="-440" />
              <mxPoint x="583" y="-440" />
            </Array>
          </mxGeometry>
        </mxCell>
        <mxCell id="XH3ymB31vykvf-I55AMi-20" style="edgeStyle=orthogonalEdgeStyle;rounded=0;orthogonalLoop=1;jettySize=auto;html=1;" edge="1" parent="1" source="XH3ymB31vykvf-I55AMi-2" target="I240FFUc2NYjbOVeZY0n-9">
          <mxGeometry relative="1" as="geometry">
            <Array as="points">
              <mxPoint x="820" y="-576" />
              <mxPoint x="820" y="-490" />
            </Array>
          </mxGeometry>
        </mxCell>
        <mxCell id="XH3ymB31vykvf-I55AMi-24" style="edgeStyle=orthogonalEdgeStyle;rounded=0;orthogonalLoop=1;jettySize=auto;html=1;entryX=0.5;entryY=1;entryDx=0;entryDy=0;" edge="1" parent="1" source="kll8w6i1lzObCTbQpMs8-129" target="kll8w6i1lzObCTbQpMs8-131">
          <mxGeometry relative="1" as="geometry" />
        </mxCell>
        <mxCell id="XH3ymB31vykvf-I55AMi-25" value="&lt;font style=&quot;font-size: 72px;&quot;&gt;Sinps&amp;amp;Spikes&lt;/font&gt;" style="text;html=1;align=center;verticalAlign=middle;resizable=0;points=[];autosize=1;strokeColor=none;fillColor=none;" vertex="1" parent="1">
          <mxGeometry x="935.57" y="-1050" width="470" height="100" as="geometry" />
        </mxCell>
        <mxCell id="XH3ymB31vykvf-I55AMi-26" value="" style="group" vertex="1" connectable="0" parent="1">
          <mxGeometry x="825.8490566037735" y="60" width="166.41509433962264" height="125" as="geometry" />
        </mxCell>
        <mxCell id="XH3ymB31vykvf-I55AMi-27" value="" style="whiteSpace=wrap;html=1;" vertex="1" parent="XH3ymB31vykvf-I55AMi-26">
          <mxGeometry x="11.88679245283019" width="142.64150943396226" height="125" as="geometry" />
        </mxCell>
        <mxCell id="XH3ymB31vykvf-I55AMi-28" value="&lt;font style=&quot;font-size: 18px;&quot;&gt;Micro-service&amp;nbsp;&lt;/font&gt;" style="text;html=1;align=center;verticalAlign=middle;resizable=0;points=[];autosize=1;strokeColor=none;fillColor=none;" vertex="1" parent="XH3ymB31vykvf-I55AMi-26">
          <mxGeometry x="10.15" width="140" height="40" as="geometry" />
        </mxCell>
        <mxCell id="XH3ymB31vykvf-I55AMi-29" value="" style="sketch=0;outlineConnect=0;fontColor=#232F3E;gradientColor=none;fillColor=#D45B07;strokeColor=none;dashed=0;verticalLabelPosition=bottom;verticalAlign=top;align=center;html=1;fontSize=12;fontStyle=0;aspect=fixed;pointerEvents=1;shape=mxgraph.aws4.ec2_aws_microservice_extractor_for_net;" vertex="1" parent="XH3ymB31vykvf-I55AMi-26">
          <mxGeometry x="54.679245283018865" y="50" width="57.056603773584904" height="57.056603773584904" as="geometry" />
        </mxCell>
        <mxCell id="XH3ymB31vykvf-I55AMi-30" value="" style="group" vertex="1" connectable="0" parent="1">
          <mxGeometry x="600" y="366.25" width="130.75471698113208" height="137.5" as="geometry" />
        </mxCell>
        <mxCell id="XH3ymB31vykvf-I55AMi-31" value="" style="whiteSpace=wrap;html=1;" vertex="1" parent="XH3ymB31vykvf-I55AMi-30">
          <mxGeometry width="130.75471698113208" height="137.5" as="geometry" />
        </mxCell>
        <mxCell id="XH3ymB31vykvf-I55AMi-32" value="AUTH" style="text;html=1;align=center;verticalAlign=middle;resizable=0;points=[];autosize=1;strokeColor=none;fillColor=none;" vertex="1" parent="XH3ymB31vykvf-I55AMi-31">
          <mxGeometry x="32.68867924528302" y="100" width="60" height="30" as="geometry" />
        </mxCell>
        <mxCell id="XH3ymB31vykvf-I55AMi-33" value="" style="whiteSpace=wrap;html=1;" vertex="1" parent="XH3ymB31vykvf-I55AMi-31">
          <mxGeometry width="130.75471698113208" height="137.5" as="geometry" />
        </mxCell>
        <mxCell id="XH3ymB31vykvf-I55AMi-34" value="AUTH" style="text;html=1;align=center;verticalAlign=middle;resizable=0;points=[];autosize=1;strokeColor=none;fillColor=none;" vertex="1" parent="XH3ymB31vykvf-I55AMi-33">
          <mxGeometry x="32.68867924528302" y="100" width="60" height="30" as="geometry" />
        </mxCell>
        <mxCell id="XH3ymB31vykvf-I55AMi-35" value="" style="shape=image;html=1;verticalAlign=top;verticalLabelPosition=bottom;labelBackgroundColor=#ffffff;imageAspect=0;aspect=fixed;image=https://cdn3.iconfinder.com/data/icons/essential-rounded/64/Rounded-31-128.png" vertex="1" parent="XH3ymB31vykvf-I55AMi-30">
          <mxGeometry x="27.240566037735846" y="12.5" width="76.27358490566036" height="76.27358490566036" as="geometry" />
        </mxCell>
        <mxCell id="XH3ymB31vykvf-I55AMi-36" value="" style="group" vertex="1" connectable="0" parent="1">
          <mxGeometry x="843.6792452830189" y="366.25" width="130.75471698113208" height="137.5" as="geometry" />
        </mxCell>
        <mxCell id="XH3ymB31vykvf-I55AMi-37" value="" style="whiteSpace=wrap;html=1;" vertex="1" parent="XH3ymB31vykvf-I55AMi-36">
          <mxGeometry width="130.75471698113208" height="137.5" as="geometry" />
        </mxCell>
        <mxCell id="XH3ymB31vykvf-I55AMi-38" value="" style="verticalLabelPosition=bottom;shadow=0;dashed=0;align=center;html=1;verticalAlign=top;strokeWidth=1;shape=mxgraph.mockup.misc.mail2;strokeColor=#999999;" vertex="1" parent="XH3ymB31vykvf-I55AMi-36">
          <mxGeometry x="28.2311320754717" y="23.75" width="74.29245283018868" height="50" as="geometry" />
        </mxCell>
        <mxCell id="XH3ymB31vykvf-I55AMi-39" value="EMAIL SERVICE" style="text;html=1;align=center;verticalAlign=middle;resizable=0;points=[];autosize=1;strokeColor=none;fillColor=none;" vertex="1" parent="XH3ymB31vykvf-I55AMi-36">
          <mxGeometry x="10.38" y="93.75" width="110" height="30" as="geometry" />
        </mxCell>
        <mxCell id="XH3ymB31vykvf-I55AMi-40" value="" style="group" vertex="1" connectable="0" parent="1">
          <mxGeometry x="1111.132075471698" y="360" width="118.86792452830188" height="150" as="geometry" />
        </mxCell>
        <mxCell id="XH3ymB31vykvf-I55AMi-41" value="" style="whiteSpace=wrap;html=1;" vertex="1" parent="XH3ymB31vykvf-I55AMi-40">
          <mxGeometry width="118.86792452830188" height="137.5" as="geometry" />
        </mxCell>
        <mxCell id="XH3ymB31vykvf-I55AMi-42" value="" style="shape=image;html=1;verticalAlign=top;verticalLabelPosition=bottom;labelBackgroundColor=#ffffff;imageAspect=0;aspect=fixed;image=https://cdn2.iconfinder.com/data/icons/user-interface-169/32/bell-128.png" vertex="1" parent="XH3ymB31vykvf-I55AMi-40">
          <mxGeometry x="26.150943396226413" y="12.5" width="71.32075471698113" height="71.32075471698113" as="geometry" />
        </mxCell>
        <mxCell id="XH3ymB31vykvf-I55AMi-43" value="&lt;span style=&quot;color: rgb(0, 0, 0); font-family: Helvetica; font-size: 12px; font-style: normal; font-variant-ligatures: normal; font-variant-caps: normal; font-weight: 400; letter-spacing: normal; orphans: 2; text-indent: 0px; text-transform: none; widows: 2; word-spacing: 0px; -webkit-text-stroke-width: 0px; background-color: rgb(251, 251, 251); text-decoration-thickness: initial; text-decoration-style: initial; text-decoration-color: initial; float: none; display: inline !important;&quot;&gt;NOTIFICATON&amp;nbsp;&lt;/span&gt;&lt;br style=&quot;border-color: var(--border-color); color: rgb(0, 0, 0); font-family: Helvetica; font-size: 12px; font-style: normal; font-variant-ligatures: normal; font-variant-caps: normal; font-weight: 400; letter-spacing: normal; orphans: 2; text-indent: 0px; text-transform: none; widows: 2; word-spacing: 0px; -webkit-text-stroke-width: 0px; background-color: rgb(251, 251, 251); text-decoration-thickness: initial; text-decoration-style: initial; text-decoration-color: initial;&quot;&gt;&lt;span style=&quot;color: rgb(0, 0, 0); font-family: Helvetica; font-size: 12px; font-style: normal; font-variant-ligatures: normal; font-variant-caps: normal; font-weight: 400; letter-spacing: normal; orphans: 2; text-indent: 0px; text-transform: none; widows: 2; word-spacing: 0px; -webkit-text-stroke-width: 0px; background-color: rgb(251, 251, 251); text-decoration-thickness: initial; text-decoration-style: initial; text-decoration-color: initial; float: none; display: inline !important;&quot;&gt;SERVICE&lt;/span&gt;" style="text;whiteSpace=wrap;html=1;align=center;" vertex="1" parent="XH3ymB31vykvf-I55AMi-40">
          <mxGeometry x="14.264150943396226" y="87.5" width="95.09433962264151" height="62.5" as="geometry" />
        </mxCell>
        <mxCell id="XH3ymB31vykvf-I55AMi-44" style="edgeStyle=orthogonalEdgeStyle;rounded=0;orthogonalLoop=1;jettySize=auto;html=1;entryX=0.5;entryY=0;entryDx=0;entryDy=0;" edge="1" parent="1" source="XH3ymB31vykvf-I55AMi-27" target="XH3ymB31vykvf-I55AMi-33">
          <mxGeometry relative="1" as="geometry">
            <Array as="points">
              <mxPoint x="909.0566037735848" y="247.5" />
              <mxPoint x="665.377358490566" y="247.5" />
            </Array>
          </mxGeometry>
        </mxCell>
        <mxCell id="XH3ymB31vykvf-I55AMi-45" style="edgeStyle=orthogonalEdgeStyle;rounded=0;orthogonalLoop=1;jettySize=auto;html=1;entryX=0.5;entryY=0;entryDx=0;entryDy=0;" edge="1" parent="1" source="XH3ymB31vykvf-I55AMi-29" target="XH3ymB31vykvf-I55AMi-37">
          <mxGeometry relative="1" as="geometry" />
        </mxCell>
        <mxCell id="XH3ymB31vykvf-I55AMi-46" style="edgeStyle=orthogonalEdgeStyle;rounded=0;orthogonalLoop=1;jettySize=auto;html=1;entryX=0.5;entryY=0;entryDx=0;entryDy=0;" edge="1" parent="1" source="XH3ymB31vykvf-I55AMi-27" target="XH3ymB31vykvf-I55AMi-41">
          <mxGeometry relative="1" as="geometry">
            <Array as="points">
              <mxPoint x="909.0566037735848" y="247.5" />
              <mxPoint x="1170.566037735849" y="247.5" />
            </Array>
          </mxGeometry>
        </mxCell>
        <mxCell id="XH3ymB31vykvf-I55AMi-48" style="edgeStyle=orthogonalEdgeStyle;rounded=0;orthogonalLoop=1;jettySize=auto;html=1;entryX=0.515;entryY=-0.002;entryDx=0;entryDy=0;entryPerimeter=0;" edge="1" parent="1" source="ika4yATIqestbi-0xnFT-3" target="XH3ymB31vykvf-I55AMi-28">
          <mxGeometry relative="1" as="geometry">
            <Array as="points" />
          </mxGeometry>
        </mxCell>
      </root>
    </mxGraphModel>
  </diagram>
</mxfile>
